<svg id="Layer_1" data-name="Layer 1" xmlns="http://www.w3.org/2000/svg" xmlns:xlink="http://www.w3.org/1999/xlink" viewBox="0 0 50.58166 50.58166"><defs><style>.cls-1{fill:#fff;}.cls-2{fill:#58595b;}.cls-3{fill:#9cbe3b;}.cls-4{fill:#c3cc2f;}.cls-5{fill:#77ad42;}.cls-6{fill:#469142;}.cls-7{fill:none;stroke-miterlimit:10;stroke-width:2px;stroke:url(#linear-gradient);}</style><linearGradient id="linear-gradient" x1="0.40993" y1="25.45515" x2="50.52759" y2="25.45515" gradientUnits="userSpaceOnUse"><stop offset="0" stop-color="#008fca"/><stop offset="1" stop-color="#76a542"/></linearGradient></defs><path class="cls-1" d="M40.79084,28.56741a2.74478,2.74478,0,0,1-2.75976,2.68848h-1.6836V29.34061l1.583-1.583a.57452.57452,0,0,0-.8125-.8125l-.77051.77051v-1.8855a.57446.57446,0,1,0-1.14892,0v5.42578H33.29084a2.7452,2.7452,0,0,1-2.76025-2.68848v-.00024a2.71325,2.71325,0,0,1,1.15869-2.24878,1.88869,1.88869,0,0,0,.80224-1.54858V24.763a3.16927,3.16927,0,1,1,6.33838,0v.00684a1.88791,1.88791,0,0,0,.80274,1.54858,2.71405,2.71405,0,0,1,1.1582,2.24878Z"/><path class="cls-2" d="M41.366,26.44754a3.51329,3.51329,0,0,0-1.082-1.07568.73712.73712,0,0,1-.30469-.60132V24.763a4.37348,4.37348,0,0,0-1.48047-3.29932l.00049-.00879c-.06934-.05908-.146-.10668-.21826-.16088-.07666-.05762-.14991-.11792-.231-.17017a4.3492,4.3492,0,0,0-.44678-.24927c-.01611-.00757-.02978-.01806-.0459-.02539l-.00586-.0022a4.40468,4.40468,0,0,0-3.78173,0l-.00586.0022c-.01514.00708-.02881.01734-.044.02466a4.28776,4.28776,0,0,0-.44873.25024c-.08057.052-.15332.11182-.22949.16919-.07276.05445-.1499.1023-.21973.16162l.00049.00879a4.37474,4.37474,0,0,0-1.48,3.29932v.00757a.73889.73889,0,0,1-.30518.60132,3.50637,3.50637,0,0,0-1.08154,1.07568A3.89417,3.89417,0,0,0,31.659,32.043l-.02588.01733a3.87125,3.87125,0,0,0,.48437.15845c.05567.01733.10889.03931.16553.0542.10547.02661.21045.0459.31787.06372a3.91974,3.91974,0,0,0,.5625.05981c.02637.00049.05225.00831.07861.00831h1.95655v4.782a.57458.57458,0,0,0,.57421.57447h.00049a.57458.57458,0,0,0,.57422-.57447v-4.782h1.6836A3.90523,3.90523,0,0,0,41.366,26.44754Zm-.5752,2.11987a2.74478,2.74478,0,0,1-2.75976,2.68848h-1.6836V29.34061l1.583-1.583a.57452.57452,0,0,0-.8125-.8125l-.77051.77051v-1.8855a.57446.57446,0,1,0-1.14892,0v5.42578H33.29084a2.7452,2.7452,0,0,1-2.76025-2.68848v-.00024a2.71325,2.71325,0,0,1,1.15869-2.24878,1.88869,1.88869,0,0,0,.80224-1.54858V24.763a3.16927,3.16927,0,1,1,6.33838,0v.00684a1.88791,1.88791,0,0,0,.80274,1.54858,2.71405,2.71405,0,0,1,1.1582,2.24878Z"/><path class="cls-1" d="M13.54377,31.256a2.928,2.928,0,0,1-2.09475-.8796,2.82475,2.82475,0,0,1-.83169-2.02748,2.87075,2.87075,0,0,1,.37543-1.388,2.18381,2.18381,0,0,0,.13357-1.88042,2.87553,2.87553,0,0,1,1.25772-3.53425,2.24063,2.24063,0,0,0,1.13847-2.06063,2.87462,2.87462,0,1,1,5.74022.03614,2.25067,2.25067,0,0,0,1.07148,2.06614,2.87589,2.87589,0,0,1,.99346,1.01248l.016.03091a2.87491,2.87491,0,0,1,.17706,2.44921,2.18369,2.18369,0,0,0,.13357,1.88013,2.87368,2.87368,0,0,1,.37554,1.38836,2.9446,2.9446,0,0,1-2.92633,2.90685H16.898V29.45473l2.32105-2.3211a.57451.57451,0,1,0-.8125-.81245L16.898,27.82979V22.87472a.57449.57449,0,1,0-1.149,0v2.20115l-1.25933-1.25934a.5745.5745,0,1,0-.8125.81244l2.07177,2.07178v4.55506H13.54377Z"/><path class="cls-2" d="M21.9232,21.45476a4.06,4.06,0,0,0-.99059-.84755,1.10336,1.10336,0,0,1-.52456-.98011,4.02486,4.02486,0,1,0-8.03307-.08533,1.09475,1.09475,0,0,1-.51063.97663,4.2818,4.2818,0,0,0-2.04266,2.96553,4.042,4.042,0,0,0,.23356,2.01241,1.05331,1.05331,0,0,1-.06038.89522,4.02231,4.02231,0,0,0-.52634,1.94476,3.965,3.965,0,0,0,1.16357,2.84814,4.12415,4.12415,0,0,0,2.91173,1.22061h2.2054V35.1868a.57446.57446,0,0,0,.57455.57446h0a.57446.57446,0,0,0,.57437-.57446V32.405h2.20546a4.08121,4.08121,0,0,0,1.63045-.34458,6.90261,6.90261,0,0,0,1.2378-.82939,3.98879,3.98879,0,0,0,.68065-4.83949,1.05353,1.05353,0,0,1-.06044-.89522,4.05218,4.05218,0,0,0-.05532-3.04852A6.0829,6.0829,0,0,0,21.9232,21.45476ZM13.54377,31.256a2.928,2.928,0,0,1-2.09475-.8796,2.82475,2.82475,0,0,1-.83169-2.02748,2.87075,2.87075,0,0,1,.37543-1.388,2.18381,2.18381,0,0,0,.13357-1.88042,2.87553,2.87553,0,0,1,1.25772-3.53425,2.24063,2.24063,0,0,0,1.13847-2.06063,2.87462,2.87462,0,1,1,5.74022.03614,2.25067,2.25067,0,0,0,1.07148,2.06614,2.87589,2.87589,0,0,1,.99346,1.01248l.016.03091a2.87491,2.87491,0,0,1,.17706,2.44921,2.18369,2.18369,0,0,0,.13357,1.88013,2.87368,2.87368,0,0,1,.37554,1.38836,2.9446,2.9446,0,0,1-2.92633,2.90685H16.898V29.45473l2.32105-2.3211a.57451.57451,0,1,0-.8125-.81245L16.898,27.82979V22.87472a.57449.57449,0,1,0-1.149,0v2.20115l-1.25933-1.25934a.5745.5745,0,1,0-.8125.81244l2.07177,2.07178v4.55506H13.54377Z"/><path class="cls-1" d="M25.79856,13.36189a.51982.51982,0,0,0-.5198.51979V17.565l-2.36144-2.36144a.5198.5198,0,0,0-.735.735L25.27876,19.035v7.10668l-2.23149-2.23149a.51979.51979,0,0,0-.735.735l2.96648,2.96649v2.38379H22.16a3.12184,3.12184,0,0,1-3.11879-3.11879,3.08335,3.08335,0,0,1,.68249-1.94352.51988.51988,0,0,0-.08173-.73058q-.01629-.01305-.03366-.02469a3.63848,3.63848,0,0,1,0-6.038.51975.51975,0,0,0,.14008-.72161c-.00779-.01156-.016-.02274-.02469-.03365a3.08338,3.08338,0,0,1-.68249-1.94353A3.12185,3.12185,0,0,1,22.16,12.32229l.13462.00728a.503.503,0,0,0,.43092-.20116.51663.51663,0,0,0,.0868-.46782,3.1263,3.1263,0,0,1-.13255-.89769,3.07087,3.07087,0,0,1,.05458-.57178.05553.05553,0,0,1,.00312-.02235,3.199,3.199,0,0,1,.1627-.54943,3.11412,3.11412,0,0,1,5.79678,0,3.20072,3.20072,0,0,1,.1627.55307.0555.0555,0,0,0,.00312.02235,3.07049,3.07049,0,0,1,.05458.56814,3.126,3.126,0,0,1-.13255.89769.51663.51663,0,0,0,.08681.46782.50658.50658,0,0,0,.43091.20116l.13462-.00728a3.12185,3.12185,0,0,1,3.11879,3.11879,3.08338,3.08338,0,0,1-.68249,1.94353.51987.51987,0,0,0,.08173.73057q.01629.01307.03366.02469a3.6386,3.6386,0,0,1,0,6.038.51977.51977,0,0,0-.14008.72161c.00779.01157.016.02274.02469.03366a3.08337,3.08337,0,0,1,.68249,1.94352,3.12184,3.12184,0,0,1-3.11879,3.11879H26.31836V22.89758a.50193.50193,0,0,0,.1076-.07173l3.37868-3.37869a.51979.51979,0,0,0-.735-.735l-2.75129,2.75129V13.88168A.51978.51978,0,0,0,25.79856,13.36189Z"/><path class="cls-2" d="M26.31836,31.035h3.83093a5.673,5.673,0,0,0,2.03551-1.03959c.02963-.026.05614-.05614.08473-.08317.05717-.052.11279-.10656.16685-.1627.04262-.0447.08421-.091.12527-.13774.052-.05822.10032-.117.14762-.17829.03847-.04887.0759-.09824.11176-.14918.04522-.0629.08785-.12735.12943-.19337.03327-.052.066-.104.09668-.15594.039-.06861.07538-.13878.11072-.20792.027-.05458.052-.10916.07953-.1653.03327-.07381.06186-.15022.09045-.22611.02131-.05666.04366-.11175.06237-.16945.02651-.08109.04782-.16478.06913-.248.014-.05509.03067-.10915.04263-.16529.02027-.09409.03378-.18973.0473-.28589.00676-.04782.01663-.0946.02183-.14347a4.1417,4.1417,0,0,0,.02443-.447A4.09956,4.09956,0,0,0,32.991,24.72a4.66951,4.66951,0,0,0,1.63164-3.33347,2.85467,2.85467,0,0,0,.03159-.6469,3.24479,3.24479,0,0,0-.15842-.69626,4.6694,4.6694,0,0,0-1.50481-2.443,4.09976,4.09976,0,0,0,.60452-2.15924,4.16461,4.16461,0,0,0-3.675-4.13031,3.91762,3.91762,0,0,0-.01559-1.15967c-.0052-.03534-.00988-.07069-.01612-.104a4.08991,4.08991,0,0,0-.1497-.59673.02475.02475,0,0,0-.00364-.01559,2.98611,2.98611,0,0,0-.55462-1.0817,4.14541,4.14541,0,0,0-6.76465,0,3.92594,3.92594,0,0,0-.55619,1.08014.02476.02476,0,0,1-.00364.0156,4.09087,4.09087,0,0,0-.1497.59673c-.00623.03482-.01091.07017-.01611.104a3.91751,3.91751,0,0,0-.014,1.15966,4.16464,4.16464,0,0,0-3.675,4.13188,4.09951,4.09951,0,0,0,.60453,2.15664l-.02651.02547a4.159,4.159,0,0,0-.70537.76462A4.673,4.673,0,0,0,18.60612,24.72a4.06768,4.06768,0,0,0-.45535,1.051,3.56706,3.56706,0,0,0-.13774,1.33224c.00416.07226.0052.145.013.21572.0052.04886.01508.09564.02183.14347.01352.09616.027.1918.0473.28588.012.05614.02859.1102.04263.1653.02131.08317.04262.16685.06913.24794.01871.0577.04107.1128.06238.16946.02859.07589.05717.1523.09044.22611.025.05614.052.11072.07953.1653.03535.07121.07173.14138.11072.20792.03067.052.06341.104.09668.15594.04158.066.08421.13046.12943.19336.03587.052.07329.10032.11176.14918.0473.06134.09668.12008.14762.17829.04106.04678.08265.093.12527.13775.052.05614.10968.10968.16686.1627.02858.027.05509.05717.08472.08316A3.72262,3.72262,0,0,0,21.86005,31.035h4.45831Zm-.5198-17.67312a.51982.51982,0,0,0-.5198.51979V17.565l-2.36144-2.36144a.5198.5198,0,0,0-.735.735L25.27876,19.035v7.10668l-2.23149-2.23149a.51979.51979,0,0,0-.735.735l2.96648,2.96649v2.38379H22.16a3.12184,3.12184,0,0,1-3.11879-3.11879,3.08335,3.08335,0,0,1,.68249-1.94352.51988.51988,0,0,0-.08173-.73058q-.01629-.01305-.03366-.02469a3.63848,3.63848,0,0,1,0-6.038.51975.51975,0,0,0,.14008-.72161c-.00779-.01156-.016-.02274-.02469-.03365a3.08338,3.08338,0,0,1-.68249-1.94353A3.12185,3.12185,0,0,1,22.16,12.32229l.13462.00728a.503.503,0,0,0,.43092-.20116.51663.51663,0,0,0,.0868-.46782,3.1263,3.1263,0,0,1-.13255-.89769,3.07087,3.07087,0,0,1,.05458-.57178.05553.05553,0,0,1,.00312-.02235,3.199,3.199,0,0,1,.1627-.54943,3.11412,3.11412,0,0,1,5.79678,0,3.20072,3.20072,0,0,1,.1627.55307.0555.0555,0,0,0,.00312.02235,3.07049,3.07049,0,0,1,.05458.56814,3.126,3.126,0,0,1-.13255.89769.51663.51663,0,0,0,.08681.46782.50658.50658,0,0,0,.43091.20116l.13462-.00728a3.12185,3.12185,0,0,1,3.11879,3.11879,3.08338,3.08338,0,0,1-.68249,1.94353.51987.51987,0,0,0,.08173.73057q.01629.01307.03366.02469a3.6386,3.6386,0,0,1,0,6.038.51977.51977,0,0,0-.14008.72161c.00779.01157.016.02274.02469.03366a3.08337,3.08337,0,0,1,.68249,1.94352,3.12184,3.12184,0,0,1-3.11879,3.11879H26.31836V22.89758a.50193.50193,0,0,0,.1076-.07173l3.37868-3.37869a.51979.51979,0,0,0-.735-.735l-2.75129,2.75129V13.88168A.51978.51978,0,0,0,25.79856,13.36189Z"/><rect class="cls-2" x="25.27876" y="29.99542" width="1.04214" height="7.56441" rx="0.52107"/><path class="cls-3" d="M3.95706,34.16808a8.70994,8.70994,0,0,0-.04961.878,9.50458,9.50458,0,0,0,1.86112,5.52119c5.76654.40858,13.569.35317,15.38371.23744,2.15556-.13746,8.01883-.73779,8.96731-1.01065s.42157-2.12841.42157-2.12841C22.35945,37.6657,18.3142,32.60288,3.95706,34.16808Z"/><path class="cls-4" d="M30.54108,37.6657c-8.18163,0-12.22688-5.06282-26.584-3.49767-.00484.04763-.00384.09627-.0081.144,12.68253-1.41457,16.44094,3.95647,23.87824,3.95647a4.25393,4.25393,0,0,1,.03333,1.87686,21.712,21.712,0,0,0,2.25906-.35126C31.068,39.52125,30.54108,37.6657,30.54108,37.6657Z"/><path class="cls-3" d="M46.62543,35.91969c-13.85871.00835-19.11013,3.49239-30.30174,3.49239v2.947L35.44451,46.9598C41.7499,44.80247,46.14405,40.69791,46.62543,35.91969Z"/><path class="cls-5" d="M4.50652,38.22537c2.26031,5.94029,10.70539,10.3553,20.78448,10.3553.78935,0,1.56776-.02908,2.335-.08185a59.60348,59.60348,0,0,0,2.57981-5.59394c-5.51837,0-11.51086-4.80259-25.60856-4.80259Z"/><path class="cls-6" d="M25.291,48.58067c8.87484,0,16.4858-3.42234,19.72123-8.29535h-.407c-12.21009,0-20.81906,6.07737-30.957,6.11084A30.79669,30.79669,0,0,0,25.291,48.58067Z"/><circle class="cls-7" cx="25.46876" cy="25.45515" r="24.05883"/></svg>